<svg width="869" height="869" viewBox="0 0 869 869" fill="none" xmlns="http://www.w3.org/2000/svg">
<circle cx="434.5" cy="434.5" r="434.5" fill="white"/>
<path d="M444.369 49.7854C437.435 53.3854 432.502 61.5188 431.702 70.1854C429.702 94.1854 457.569 107.652 475.435 91.5188C481.835 85.7854 483.969 79.7854 483.169 69.5188C482.502 60.5854 478.102 53.7854 470.102 49.5188C463.835 46.0521 451.169 46.1854 444.369 49.7854ZM466.102 60.3188C470.635 63.5188 473.302 70.7188 472.102 76.3188C471.035 81.5188 463.035 88.3188 458.235 88.3188C452.369 88.3188 445.702 82.9854 443.702 76.7188C442.102 71.7854 442.235 70.5854 444.235 66.3188C448.235 57.9188 458.635 54.9854 466.102 60.3188Z" fill="#027302"/>
<path d="M393.4 48.2521C391.533 48.6521 391 50.2521 391 54.3855C391.133 63.8521 394.467 96.5188 395.267 97.4521C395.8 97.8521 402.867 97.8521 410.867 97.3188L425.667 96.3855V91.0521V85.8521L415.8 86.7855C404.2 87.8521 405 88.7855 403.667 70.6521C402.2 49.5854 401.8 47.3188 398.467 47.4521C397 47.5855 394.6 47.8521 393.4 48.2521Z" fill="#027302"/>
<path d="M346.333 54.7855C340.067 57.0522 334.6 62.1188 331.667 67.9855C327.8 76.2522 329.933 90.2522 336.067 97.0522C342.333 104.119 356.733 106.785 366.067 102.785C371.267 100.519 378.333 93.3188 380.2 88.2522C385.267 74.7855 376.867 57.8522 363.267 53.9855C356.867 52.2522 352.867 52.3855 346.333 54.7855ZM361 65.1855C367.8 68.1188 370.333 73.1855 369.8 82.7855C369.667 84.3855 367.933 87.5855 365.8 89.8522C362.6 93.3188 360.867 93.9855 355.933 93.9855C348.467 93.9855 343.667 90.3855 341.533 83.3188C338.733 73.8522 344.867 65.0522 355.4 63.4522C355.933 63.4522 358.467 64.1188 361 65.1855Z" fill="#027302"/>
<path d="M505.035 57.7855C488.235 66.1855 486.769 92.3189 502.369 102.719C513.435 109.919 531.035 107.652 537.835 98.0522C541.435 92.8522 543.702 84.3189 541.702 83.6522C536.369 81.7855 518.902 78.9855 517.969 79.9189C517.435 80.4522 516.502 82.5855 516.102 84.5855C515.302 87.9189 515.435 88.1855 521.302 88.9855C528.635 90.1855 529.569 91.1189 526.235 94.1855C522.235 97.7855 515.435 98.1855 510.369 95.1189C496.635 86.4522 501.835 65.6522 517.702 65.6522C522.769 65.6522 524.369 66.3189 528.235 70.1855C532.502 74.4522 533.035 74.5855 537.435 73.2522C543.035 71.6522 543.169 70.5855 538.635 64.5855C531.435 55.3855 516.235 52.3189 505.035 57.7855Z" fill="#027302"/>
<path d="M304.733 66.7855C302.333 67.8521 300.333 68.9188 300.333 69.3188C300.333 69.7188 303 76.6521 306.2 84.7855C309.533 92.9188 311.533 98.9188 310.6 98.2521C295.267 86.2521 282.333 76.6521 281.4 76.6521C279.133 76.6521 271 80.5188 271 81.5855C271 82.9188 288.2 126.385 289 127.185C289.533 127.585 297.267 124.919 298.733 123.852C299 123.719 296.467 116.919 293.133 108.785C287.667 95.1855 287 91.1855 290.867 95.8521C291.667 96.9188 297.933 101.985 304.867 107.185L317.267 116.652L322.733 114.385C326.6 112.652 328.067 111.319 327.667 109.985C322.067 94.7855 310.2 64.7855 309.667 64.7855C309.267 64.7855 307 65.7188 304.733 66.7855Z" fill="#027302"/>
<path d="M556.035 68.9333C556.435 70.6667 557.902 78 559.235 85.2L561.769 98.4L557.902 107.733C555.769 112.8 554.035 117.467 554.035 118C554.035 118.933 563.502 123.733 564.035 123.067C564.169 122.8 565.902 118.4 567.902 113.2C571.502 104.267 572.169 103.333 584.969 93.3333L598.302 82.8L592.835 80.1333L587.502 77.4667L579.502 84.4C572.835 90.1333 571.502 90.9333 570.835 89.0667C570.302 87.0667 567.369 71.6 567.369 70.5333C567.369 70.2667 556.835 66 556.035 66C555.635 66 555.635 67.3333 556.035 68.9333Z" fill="#027302"/>
<path d="M249.933 91.3188C247.533 92.7854 245.667 94.2521 245.667 94.5188C245.667 94.7854 247.667 98.5188 250.067 102.785L254.467 110.652L246.733 115.585C242.467 118.385 238.6 120.652 238.333 120.652C237.933 120.652 235.533 116.785 232.867 112.119L227.933 103.585L223.533 106.385C221 107.985 219 109.719 219 110.385C219 111.452 241.4 151.185 243.133 153.185C244.733 154.919 254.067 148.652 252.6 146.785C251.933 145.985 249.533 141.985 247.133 137.719L243 130.252L250.6 125.452C254.867 122.785 258.733 120.652 259.267 120.652C259.8 120.652 262.467 124.519 265.133 129.185L270.067 137.852L275.267 135.185L280.467 132.519L277.533 127.585C275.933 124.919 270.467 115.319 265.4 106.385C260.333 97.4521 255.8 89.8521 255.133 89.4521C254.6 89.0521 252.2 89.9854 249.933 91.3188Z" fill="#027302"/>
<path d="M622.969 106.533C612.569 110.4 606.035 120 606.035 131.333C606.035 149.867 624.835 162.933 641.369 156.133C643.902 155.067 646.035 153.6 646.035 152.933C646.035 152.4 644.435 150.267 642.302 148.267C639.635 145.733 638.169 145.067 636.702 146C629.102 150.933 616.702 142.267 616.702 132C616.702 127.467 619.902 121.333 623.635 118.8C627.235 116.267 637.769 116 640.835 118.4C644.302 121.067 647.769 127.2 646.969 129.333C646.035 131.6 646.569 132 652.302 133.2C655.769 134 656.569 133.733 657.369 131.467C658.435 127.867 656.035 119.2 652.569 114.8C646.435 107.067 632.302 103.067 622.969 106.533Z" fill="#027302"/>
<path d="M193 129.452C175.667 137.985 173.8 160.652 189.133 173.185C196.067 178.785 207.267 179.585 216.2 175.319C224.733 171.052 230.067 162.652 230.067 153.052C230.067 149.185 229.8 145.985 229.4 145.985C229.133 145.985 226.733 147.052 224.067 148.252C220.333 149.985 219.4 151.185 219.4 154.385C219.4 159.852 211.8 167.319 206.2 167.319C192.333 167.319 184.6 151.185 193.933 141.852C197.667 138.252 200.2 137.452 206.733 137.852C208.467 137.985 210.467 136.385 212.333 133.452L215.267 128.919L211.133 127.452C204.733 125.185 200.6 125.719 193 129.452Z" fill="#027302"/>
<path d="M406.067 131.985C405 132.252 398.733 133.185 392.067 133.985C291.533 147.185 201.933 214.652 161 308.119C121.933 396.919 128.6 502.919 178.333 585.852C220.2 655.452 289.933 705.719 369.8 724.119C467.133 746.519 572.867 715.319 644.733 643.185C690.6 597.052 719.133 540.252 729.533 473.985C732.467 455.452 733 406.119 730.333 389.319C718.6 315.319 692.067 263.052 641.267 213.985C597.133 171.319 545.8 145.585 483.133 134.519C471.8 132.519 411.933 130.519 406.067 131.985ZM463.4 146.519C533 154.385 593.933 184.385 641 233.852C681.533 276.385 705 323.852 715 383.319C717.933 401.185 718.333 454.119 715.533 471.319C707.4 522.919 689.133 565.852 658.2 606.652C650.067 617.319 625 643.185 613.267 652.785C574.2 684.785 529.8 704.652 477.667 713.585C456.2 717.319 407.933 716.919 386.733 712.919C357 707.185 335.267 700.119 309.4 687.319C225 645.852 166.333 564.785 152.6 470.652C149.933 453.052 150.2 404.919 153 387.319C161.133 336.652 181.267 290.385 212.333 250.785C223.533 236.519 246.333 214.652 262.467 202.519C319.8 159.452 394.2 138.785 463.4 146.519Z" fill="#027302"/>
<path d="M491 179.719C478.067 196.785 477.4 214.385 489.133 231.585C491.4 235.185 494.067 237.985 494.733 237.985C496.867 237.985 503.267 229.185 506.333 222.252C508.333 217.985 509.133 213.052 509.267 206.652C509.267 198.519 508.733 196.252 504.867 189.052C502.467 184.519 499.133 179.585 497.533 178.119L494.467 175.185L491 179.719Z" fill="#027302"/>
<path d="M450.467 228.385C451.933 249.985 463.933 266.919 483.133 274.385L488.733 276.652V265.985C488.733 251.852 485.133 242.385 476.333 233.052C470.333 226.652 461.133 221.052 452.867 218.652L449.667 217.719L450.467 228.385Z" fill="#027302"/>
<path d="M530.467 222.385C510.733 230.652 501.4 243.719 499.8 265.585C498.867 277.452 500.067 278.385 510.6 273.185C526.867 265.319 538.067 248.119 539.133 229.719C539.533 223.985 539.267 219.319 538.6 219.319C537.933 219.452 534.333 220.785 530.467 222.385Z" fill="#027302"/>
<path d="M369.533 235.452C363.267 240.385 366.6 251.319 374.467 251.319C378.6 251.319 383.4 246.119 383.4 241.719C383.4 238.119 378.067 232.652 374.733 232.652C373.8 232.652 371.533 233.852 369.533 235.452Z" fill="#027302"/>
<path d="M387 271.052C380.067 278.252 383.8 290.252 393.4 292.119C399.533 293.185 404.867 290.385 407.8 284.385C409.933 279.985 410.067 279.052 408.2 274.919C405.933 269.319 402.6 267.319 395.8 267.319C391.8 267.319 389.667 268.252 387 271.052Z" fill="#027302"/>
<path d="M450.333 278.385C451.667 297.985 462.467 314.119 479.667 321.985L488.067 325.719L489.133 322.919C491 318.252 489 303.585 485.667 296.119C479.933 283.719 473.133 277.585 457.4 270.652L449.667 267.185L450.333 278.385Z" fill="#027302"/>
<path d="M530.2 272.519C525.133 274.519 518.6 278.652 514.6 282.252C505.667 290.519 501.933 299.052 501 313.585C500.467 323.852 500.6 324.652 503 324.652C512.6 324.652 531.8 307.719 536.467 295.052C539.133 287.719 541.267 270.519 539.667 269.452C539.133 269.185 534.867 270.519 530.2 272.519Z" fill="#027302"/>
<path d="M327.267 296.119C325.667 300.519 328.467 305.585 333 306.252C337.267 306.785 337.533 310.119 333.933 324.385C331.133 335.185 330.2 337.185 327.4 338.252C325.533 339.052 317.933 342.652 310.333 346.252L296.6 352.919L288.6 346.652C282.733 342.119 279.8 340.652 277.667 341.185C276.067 341.585 269.933 346.785 264.067 352.652L253.4 363.452L258.467 373.185L263.667 382.919L256.867 393.185C253.267 398.785 249.8 404.652 249.4 405.985C248.6 408.385 247.267 408.652 237.533 408.652C230.067 408.652 225.933 409.185 225 410.385C223 412.785 216.333 440.252 217.133 442.519C217.533 443.452 222.067 445.985 227.267 447.985C232.467 450.119 236.733 451.852 236.867 451.852C237 451.985 238.2 473.452 238.6 481.185C238.733 484.519 237.667 485.585 230.067 489.852C225.267 492.519 221.267 495.852 221 497.185C220.333 500.385 229.8 526.785 232.2 528.785C233.667 529.985 235.8 529.852 241.8 528.119C252.2 525.185 255 525.452 256.867 528.919C257.667 530.652 261.4 536.119 265.133 541.052L271.667 550.119L268.067 559.985C266.067 565.452 264.867 570.519 265.267 571.185C267 573.985 289.267 589.985 291.533 589.985C292.733 589.985 294.467 589.052 295.4 587.985C296.333 586.785 300.067 583.452 303.533 580.519L309.933 575.185L315.667 578.119C318.733 579.719 324.333 581.985 328.067 583.319L334.733 585.585L335.8 594.785C336.467 599.852 337.533 604.652 338.2 605.585C339.667 607.319 344.333 608.119 359.667 609.319C371.4 610.385 370.733 610.919 374.6 596.652L376.6 589.185L387.667 586.919L398.733 584.652L406.2 592.919L413.8 601.319L424.333 596.119C441.4 587.852 441.267 588.119 439.4 577.852C438.6 573.185 437.667 568.385 437.267 567.319C437 565.985 440.067 562.519 446.067 557.585C457.8 547.985 460.733 542.519 460.733 530.119V520.919L434.067 467.319L407.4 413.719V375.185C407.4 352.385 407.933 336.652 408.6 336.652C411.133 336.652 414.067 332.385 414.067 328.652C414.067 322.119 410.2 320.652 393.4 320.652C376.067 320.652 372.2 321.985 371.667 328.385C371 335.052 373.133 336.652 382.867 336.652H391.4V375.852V415.185L416.067 464.652C438.467 509.719 440.733 514.785 440.733 521.052C440.733 530.385 437.4 536.385 429.533 541.585L423.133 545.985H374.2C326.2 545.985 325.133 545.985 319.4 542.919C315.933 541.319 311.8 537.585 309.533 534.385C306.333 529.719 305.667 527.452 305.667 521.052C305.667 513.719 307 510.652 329.933 464.785L354.067 416.119V361.052V305.985H360.067C367.4 305.985 371 301.985 368.867 296.119L367.4 292.652H348.067H328.733L327.267 296.119ZM338.6 392.785C338.6 411.985 338.333 413.719 335.133 420.652C323.667 444.919 287.267 517.985 286.733 517.985C285.133 517.985 274.2 492.919 271.933 483.985C268.733 471.585 268.733 451.052 271.933 438.652C273.267 433.452 277.133 423.852 280.467 417.319C290.467 397.852 309.133 381.052 328.867 373.985C332.867 372.652 336.733 371.585 337.4 371.852C338.2 372.119 338.733 380.119 338.6 392.785Z" fill="#027302"/>
<path d="M587.4 313.985C580.333 317.585 570.467 328.919 566.067 338.252C559.8 351.319 557.667 363.719 558.333 381.719C559.133 402.252 562.2 409.185 576.733 423.319C582.467 428.785 587.933 434.785 588.867 436.652C592.067 442.385 590.6 488.919 584.6 565.985C582.6 593.452 582.6 599.319 585.267 604.252C589.667 612.919 602.467 615.452 609.933 609.185C617 603.319 617.4 599.185 614.867 563.719C609.533 485.852 608.333 444.519 611.267 437.319C612.2 435.052 617.267 429.052 622.6 423.985C638.467 408.785 642.867 396.652 641.667 371.319C641.133 359.185 640.2 353.852 637.4 345.985C631.267 329.319 621.267 316.652 610.867 312.652C605 310.519 592.6 311.185 587.4 313.985Z" fill="#027302"/>
<path d="M450.467 328.252C451.667 341.585 458.067 355.452 466.733 363.052C473 368.519 486.733 375.052 488.467 373.319C489 372.785 489.267 367.852 489.133 362.385C488.733 343.985 479 329.852 461.267 321.852C456.6 319.719 452.067 317.985 451.267 317.985C450.067 317.985 449.933 320.785 450.467 328.252Z" fill="#027302"/>
<path d="M532.2 320.785C513.133 328.385 503 341.985 501.267 362.385C500.2 373.719 501.267 375.185 507.8 372.519C527.667 364.785 539.933 347.052 539.133 327.319L538.733 318.252L532.2 320.785Z" fill="#027302"/>
<path d="M463 378.386C460.467 380.252 458.2 404.386 457.933 431.986C457.667 453.852 460.467 460.919 475.533 477.586C486.6 489.719 486.867 491.319 484.867 531.852C484.067 550.252 481.8 586.786 479.933 613.052C476.6 659.452 476.6 660.786 479 665.586C485.933 679.986 505.533 680.252 511.667 666.252C514.333 660.252 514.333 660.119 511.533 620.786C507.267 560.919 504.467 506.252 505.133 497.852C505.933 488.252 508.333 483.986 518.733 472.519C530.867 459.319 533.267 452.519 533.133 431.986C533 408.119 530.2 382.519 527.4 378.919C525.4 376.519 524.733 376.386 522.867 377.852C519.133 380.919 518.067 388.786 518.067 412.919C518.067 434.919 517.8 436.919 515.4 439.319C513.933 440.786 511.4 441.986 509.8 441.986C503.133 441.986 503 441.319 502.333 412.786C501.667 384.386 501.267 382.652 495.133 383.586C489.667 384.386 488.733 388.919 488.733 414.119C488.733 435.186 488.467 437.852 486.333 439.719C483 442.786 479 442.519 475.933 439.186C473.667 436.652 473.267 433.452 472.733 409.452C472.333 394.786 471.533 381.852 471 381.052C469 377.852 465.267 376.652 463 378.386Z" fill="#027302"/>
<path d="M367.667 392.119C363.4 395.052 363.667 401.585 368.067 403.585C376.067 407.185 382.333 397.052 375.133 392.119C373.533 390.919 371.8 389.985 371.4 389.985C371 389.985 369.267 390.919 367.667 392.119Z" fill="#027302"/>
<path d="M370.733 436.652C365.8 441.985 371.667 449.985 378.6 447.319C385.667 444.652 383.533 433.985 376.067 433.985C374.467 433.985 372.067 435.185 370.733 436.652Z" fill="#027302"/>
<path d="M342.467 464.119C340.067 464.652 336.733 470.252 326.733 490.119C319.267 505.052 314.067 517.185 314.067 519.452C314.067 521.585 314.867 525.452 315.933 527.985C319.533 536.385 320.467 536.519 373.267 536.785C415.533 536.919 421.133 536.652 424.2 534.785C429.533 531.185 433 524.652 432.2 519.585C431.8 517.052 425.933 503.985 419 490.252L406.333 465.452L392.6 465.319C385 465.185 371.267 464.785 362.067 464.385C352.867 463.852 344.067 463.852 342.467 464.119ZM369.4 485.319C373.667 489.452 373.667 493.185 369.267 497.452C366.733 500.119 365.133 500.652 362.333 499.985C354.867 498.252 352.867 489.452 358.867 484.785C363.4 481.185 365.533 481.319 369.4 485.319ZM401.667 506.252C407.533 511.719 404.067 520.652 396.067 520.652C387.8 520.652 384.467 511.185 390.867 506.119C395.4 502.519 397.8 502.652 401.667 506.252Z" fill="#027302"/>
<path d="M658.035 150.8L641.635 168.933L645.769 172.933L649.769 177.067L657.102 169.2L664.569 161.333L671.235 167.867L677.902 174.4L671.369 181.867L664.835 189.333L668.835 193.333L672.969 197.333L680.835 188.667C685.235 183.867 692.969 175.467 698.035 169.867L707.235 159.733L703.369 156L699.369 152.133L692.035 159.333L684.835 166.4L678.435 160.667C674.969 157.467 671.769 154.667 671.502 154.533C671.235 154.267 673.769 150.933 677.235 146.933L683.369 139.733L679.635 136.267C677.502 134.267 675.502 132.667 675.102 132.667C674.702 132.667 666.969 140.8 658.035 150.8Z" fill="#027302"/>
<path d="M149.667 170.519C144.067 177.452 139.4 183.452 139.4 183.719C139.4 184.119 147.533 191.719 157.533 200.785L175.8 217.185L183 209.319C187 204.919 191.8 199.319 193.667 196.919L197.133 192.519L193.8 189.052L190.333 185.719L184.6 191.985C181.4 195.452 178.333 198.919 177.8 199.852C176.6 201.585 173 199.719 170.867 196.385C169.933 194.785 170.867 192.785 175.133 187.985C178.2 184.519 180.733 181.185 180.733 180.652C180.733 180.252 179.133 178.385 177.267 176.519L173.8 173.319L171 176.785C169.4 178.652 166.6 181.985 164.733 184.385L161.4 188.519L157.533 185.319L153.533 182.119L159.533 175.052C167.8 165.319 167.8 165.452 163.667 161.452L159.933 157.985L149.667 170.519Z" fill="#027302"/>
<path d="M710.035 189.2C695.635 193.467 678.035 200.667 678.035 202C678.035 202.533 679.769 204.533 681.902 206.533C685.635 210.133 685.902 210.133 689.769 208.133C692.035 206.933 694.169 206 694.435 206C694.702 206 697.502 209.6 700.569 214L706.169 222L703.369 226L700.569 230L704.302 234.533C706.302 237.067 708.035 239.067 708.169 238.933C711.369 234.267 735.369 194.8 735.369 194C735.369 191.733 728.435 184.667 726.302 184.8C724.969 184.8 717.769 186.8 710.035 189.2ZM719.369 201.6C717.902 204.4 715.502 208 714.169 209.733L711.902 212.933L708.169 207.333C706.169 204.267 704.702 201.6 704.969 201.333C705.635 200.8 718.435 196.933 720.435 196.8C721.635 196.667 721.369 198.133 719.369 201.6Z" fill="#027302"/>
<path d="M120.2 208.919L108.867 225.185L113.133 228.252L117.4 231.185L120.067 227.719C127.267 218.385 125 218.119 142.733 230.652L158.733 241.985L161.667 238.252C163.4 236.252 164.733 233.985 164.733 233.319C164.6 232.519 157.533 226.919 148.733 220.785L132.867 209.585L136.867 203.719C139.133 200.519 140.733 197.585 140.467 197.452C137.667 195.319 133.267 192.652 132.6 192.652C132.067 192.652 126.467 199.985 120.2 208.919Z" fill="#027302"/>
<path d="M734.035 230.8C723.369 237.6 714.169 243.467 713.635 243.6C712.969 243.867 713.769 246.267 715.369 249.067L718.302 254L724.435 250.4C729.369 247.467 730.702 247.2 731.102 248.667C731.502 249.733 734.302 253.2 737.369 256.267C742.302 261.333 743.769 262 748.835 262C755.369 262 761.502 258.667 764.169 253.733C767.369 248 766.302 241.333 760.569 230.4C757.635 224.667 754.702 219.6 754.302 219.2C753.769 218.667 744.702 223.867 734.035 230.8ZM753.102 238.667C756.302 245.333 756.035 248.533 751.902 250C747.635 251.733 744.035 249.867 741.369 244.667C739.369 240.8 739.369 240.667 744.302 237.333C747.102 235.467 749.635 234 750.035 234C750.569 234 751.902 236.133 753.102 238.667Z" fill="#027302"/>
<path d="M101.133 258.119C94.2001 260.119 88.2001 267.185 83.5334 279.052C81.1334 285.052 79.4001 290.519 79.6667 291.319C80.2001 293.185 121.8 310.252 123.4 309.319C123.933 309.052 126.6 303.452 129.4 297.052C133.533 287.585 134.2 284.385 133.8 279.185C132.333 264.519 115.667 253.719 101.133 258.119ZM114.733 270.785C117.133 271.852 120.067 274.785 121.4 277.185C123.667 281.319 123.667 281.852 121.533 288.385C120.2 292.252 118.333 295.319 117.4 295.319C115.8 295.319 94.0667 286.519 93.0001 285.452C91.6667 283.985 97.8001 273.319 101.267 271.185C106.333 268.119 109 267.985 114.733 270.785Z" fill="#027302"/>
<path d="M772.035 260.933C770.569 261.733 769.235 262.533 768.969 262.667C768.835 262.8 769.769 266 771.235 269.6L773.902 276.267L764.969 279.867C760.035 281.867 751.635 285.333 746.435 287.6L736.702 291.6L738.835 296.4C739.902 299.067 740.969 301.467 741.235 301.733C741.502 301.867 749.502 298.8 758.835 294.667C768.302 290.667 776.702 287.6 777.502 287.867C778.169 288.133 779.635 290.933 780.569 294C781.902 298.4 782.702 299.333 784.435 298.667C785.635 298.133 787.769 297.333 789.102 297.067C790.302 296.667 791.369 295.733 791.369 294.8C791.369 291.2 778.169 260 776.569 259.733C775.502 259.467 773.502 260 772.035 260.933Z" fill="#027302"/>
<path d="M771.636 314C759.636 317.6 749.502 320.667 749.236 321.067C748.036 322.267 757.369 351.333 758.836 351.333C759.769 351.333 762.036 350.8 763.902 350L767.236 348.8L764.569 339.733C763.236 334.8 762.036 330.267 762.036 329.867C762.036 328.933 770.169 325.733 770.702 326.267C770.969 326.533 772.036 330.133 773.236 334.267C775.502 342.267 776.436 342.933 782.836 341.2L785.769 340.4L783.236 332.267C781.902 327.733 780.702 323.867 780.702 323.733C780.702 323.733 782.569 322.933 784.969 322.133C789.236 320.667 791.236 321.733 791.369 325.467C791.369 326.267 792.302 330 793.502 333.867C795.502 340.8 795.636 340.8 799.769 339.867C802.169 339.467 804.302 338.8 804.569 338.533C804.969 338.133 803.502 332.133 798.436 314.267C797.369 310.533 795.769 307.333 794.969 307.467C794.036 307.6 783.502 310.533 771.636 314Z" fill="#027302"/>
<path d="M78.3334 312.785C74.8667 314.519 71 317.985 69 321.052C65.9334 325.719 65.4 327.852 65.4 336.785C65.4 346.252 65.6667 347.452 69.5334 352.119C78.0667 362.652 92.6 365.452 103.933 358.785C111 354.652 116.733 344.385 116.733 336.119C116.6 316.785 95.8 304.119 78.3334 312.785ZM99.1334 324.119C107.533 329.585 107.4 343.585 99 348.652C92.2 352.919 85.2667 352.119 79.9334 346.785C67 333.852 83.6667 313.985 99.1334 324.119Z" fill="#027302"/>
<path d="M780.302 357.067C760.302 359.733 759.235 360 759.902 362.667C760.302 364.133 760.702 366.667 760.702 368.4C760.702 371.067 761.102 371.333 766.435 370.533C769.502 370.133 773.369 369.6 775.102 369.2C777.502 368.667 778.035 369.2 778.035 372C778.035 374.533 776.169 376.667 770.302 380.933L762.569 386.667L763.769 392C764.435 394.933 765.235 397.6 765.502 397.867C765.902 398.267 768.035 396.667 770.435 394.533C780.569 385.2 780.035 385.467 783.769 389.2C791.102 396.533 804.169 394.133 809.102 384.667C811.102 380.933 811.369 378.133 810.835 370C809.635 355.6 809.102 354 804.835 354.133C802.969 354.267 791.902 355.6 780.302 357.067ZM800.702 372.4C800.702 379.467 799.102 382 794.435 382C790.835 382 788.702 378.4 788.702 372.133C788.702 368.133 789.235 367.467 792.435 366.933C800.835 365.6 800.702 365.6 800.702 372.4Z" fill="#027302"/>
<path d="M69.4 372.252C59.2666 377.585 54.6 386.385 55.6666 398.519C57.9333 425.585 94.7333 430.919 105.4 405.719C110.6 392.919 103.667 376.252 91 371.452C85.5333 369.319 74.0666 369.719 69.4 372.252ZM90.8666 385.185C94.7333 389.052 95.4 390.652 95.4 395.719C95.4 411.052 76.4666 416.919 68.6 404.119C62.2 393.585 69.4 380.919 81.9333 380.652C85.2666 380.652 87.5333 381.852 90.8666 385.185Z" fill="#027302"/>
<path d="M55.9333 441.585C56.3333 447.185 56.7333 453.852 56.7333 456.519C56.7333 464.785 56.4667 464.652 80.7333 462.519C92.8667 461.585 103.533 460.652 104.467 460.652C105.667 460.652 106.067 458.919 105.8 454.919C105.533 450.252 105 449.319 102.733 449.585C101.267 449.719 97.4 449.985 94.0667 450.252L88.0667 450.519L87.6667 441.585L87.2667 432.652H81.9333H76.4667L77 441.985L77.4 451.319H71.8H66.0667V441.319V431.319H60.6H55L55.9333 441.585Z" fill="#027302"/>
<path d="M208.2 682.519C207 684.385 206.067 686.385 206.067 686.919C206.067 687.452 210.067 690.919 214.733 694.519C219.533 698.119 223.4 701.319 223.4 701.852C223.4 702.252 214.467 705.319 203.4 708.519C187.533 713.185 183.133 714.919 181.4 717.452C180.2 719.319 179.533 721.185 179.933 721.852C180.333 722.385 187 727.852 194.733 733.985L209 745.052L212.2 741.185C213.933 739.052 215.267 737.052 215.4 736.652C215.4 736.252 211.267 732.919 206.2 729.319C201 725.585 196.867 722.385 196.867 721.985C196.733 721.585 199.533 720.519 203.133 719.585C226.333 713.452 236.6 709.585 239.4 705.719C241 703.585 242.067 701.585 241.8 701.452C241.667 701.319 235.267 696.519 227.8 690.919C220.333 685.319 213.4 680.252 212.333 679.852C211.267 679.452 209.533 680.519 208.2 682.519Z" fill="#027302"/>
<path d="M650.2 683.319L645.8 687.052L655 698.252C670.467 716.919 671.4 719.319 665.4 725.452C662.733 728.119 660.867 728.652 657.133 728.385C652.067 727.985 651.4 727.319 633.933 706.119L629.133 700.252L624.867 703.185C622.6 704.785 620.733 706.652 620.733 707.185C620.733 707.719 625.4 713.985 631.267 721.185C646.6 740.385 654.333 743.985 667 737.852C678.067 732.519 683.667 719.585 679 710.519C677.4 707.452 659.4 684.385 655.667 680.385C655.133 679.985 652.733 681.185 650.2 683.319Z" fill="#027302"/>
<path d="M241.4 722.919C237 730.785 231.133 741.319 228.467 746.252L223.533 755.185L228.2 757.852C230.733 759.452 233.133 760.652 233.4 760.652C233.667 760.652 236.067 756.652 238.867 751.585C241.533 746.652 243.933 742.385 244.2 742.119C244.467 741.852 258.067 749.452 261.8 751.985C261.933 752.119 259.8 756.385 256.867 761.452L251.667 770.652L256.467 773.585C259.133 775.185 261.8 776.119 262.2 775.585C263.267 774.519 287.4 730.119 287.4 729.452C287.4 728.652 277.8 723.185 277.4 723.585C277.267 723.852 274.867 728.119 272.067 733.052C269.4 737.985 266.733 741.985 266.2 741.719C261.8 739.985 250.067 733.185 250.067 732.385C250.067 731.852 252.2 727.852 254.733 723.452C257.267 719.185 259.4 715.052 259.4 714.385C259.4 713.185 252.467 708.652 250.467 708.652C249.933 708.652 245.8 715.052 241.4 722.919Z" fill="#027302"/>
<path d="M604.6 716.652L599.8 719.185L599 733.452C598.467 741.319 597.8 747.985 597.533 748.385C597.133 748.652 591.8 745.585 585.4 741.452C579.133 737.319 573.267 733.985 572.333 733.985C571.4 733.985 568.6 735.052 565.933 736.385L561 738.652L572.2 761.852C578.467 774.652 583.667 785.452 583.933 785.719C584.333 786.119 592.333 782.519 593.8 781.319C594.067 781.052 591.267 774.519 587.533 766.652C583.8 758.652 580.733 751.985 580.733 751.719C580.733 751.452 585.533 754.519 591.4 758.519C602.2 766.119 605.133 767.185 606.867 764.519C607.4 763.719 608.067 756.919 608.6 749.452L609.4 735.985L616.6 750.919C620.6 759.185 624.067 765.985 624.2 765.985C625.8 765.985 634.067 761.319 634.067 760.385C634.067 758.385 611.4 713.985 610.333 713.985C609.8 714.119 607.267 715.185 604.6 716.652Z" fill="#027302"/>
<path d="M305.4 742.652C289.8 746.785 281.667 765.852 289.4 780.652C296.467 794.386 317.133 799.586 327.667 790.119L331.8 786.386L326.867 783.452C322.333 780.652 321.8 780.519 319.533 782.519C312.067 789.319 298.067 780.252 298.067 768.652C298.067 755.052 314.333 747.319 323.533 756.519C325.667 758.652 327.4 761.452 327.4 762.519C327.4 764.119 328.867 764.652 333.4 764.652C340.067 764.652 340.333 764.119 337.4 757.052C334.733 750.652 331.933 747.585 326.067 744.652C319.267 741.185 312.867 740.652 305.4 742.652Z" fill="#027302"/>
<path d="M526.467 750.252C523.4 751.319 522.067 752.519 521.933 754.519C521.933 756.119 521.133 768.385 520.2 781.985C519.133 795.585 518.6 806.919 518.867 807.185C519.133 807.452 521.8 807.052 524.733 806.119C529.667 804.652 530.067 804.252 530.067 799.585V794.519L539.667 791.452C549.933 788.119 549.933 788.119 553.933 795.052C555.4 797.719 566.467 794.385 565.533 791.719C563.533 786.652 534.6 748.652 532.733 748.785C531.667 748.919 528.733 749.585 526.467 750.252ZM538.6 771.319C541.133 775.319 542.867 778.919 542.333 779.452C540.733 780.919 531.267 783.585 530.467 782.785C530.067 782.385 530.2 777.452 530.733 771.852C531.267 766.252 532.067 762.252 532.733 762.785C533.267 763.452 535.933 767.319 538.6 771.319Z" fill="#027302"/>
<path d="M352.067 754.519C351.533 755.985 345.667 788.785 344.067 798.785L343.267 804.252L358.867 807.185C367.4 808.785 374.867 809.585 375.4 809.052C375.933 808.519 376.733 806.119 377.133 803.852C377.933 799.719 377.8 799.585 371.667 798.785C355.933 796.519 356.6 796.785 357 791.452C357.4 786.119 357.933 785.985 370.867 787.852L377.667 788.785L378.6 784.519C379.533 779.319 378.733 778.652 369.933 777.452C360.333 776.119 359.933 775.852 360.467 770.652C361.133 765.319 362.067 765.052 375 767.852L383.4 769.585L384.2 765.052C384.733 762.519 384.6 759.985 383.933 759.319C381.667 757.319 352.6 752.919 352.067 754.519Z" fill="#027302"/>
<path d="M394.067 765.852V771.319H401.533H408.867L408.2 780.252C407.8 785.319 407.133 794.919 406.6 801.585L405.8 813.985H411.8H417.667L418.467 799.719C419 791.985 419.4 782.652 419.4 779.052V772.519L427.133 772.785L434.733 773.185L435.133 768.385C435.533 763.719 435.533 763.719 429.133 762.919C425.667 762.519 416.333 761.719 408.467 761.185L394.067 760.252V765.852Z" fill="#027302"/>
<path d="M458.333 801.452C456.467 802.652 455.4 804.919 455.4 807.319C455.4 810.252 456.2 811.319 459.4 812.519C464.067 814.119 464.467 816.919 460.733 820.652C456.2 825.185 457.8 827.585 463.533 824.652C469.933 821.185 472.333 806.919 467.4 801.985C464.2 798.785 462.333 798.652 458.333 801.452Z" fill="#027302"/>
</svg>
